# xmcd CD database file
#
# Track frame offsets:
#	150
#	14720
#	53807
#	67570
#	82394
#	100246
#	118850
#	144852
#	153511
#	171815
#	199507
#	225585
#	239184
#	268460
#	286332
#	308204
#	321993
#	345556
#
# Disc length: 4790 seconds
#
# Revision: 0
# Processed by: cddbd v1.5.1PL2 Copyright (c) Steve Scherf et al.
# Submitted via: CDex 1.51
#
DISCID=0c12b412
DTITLE=Various Artist - STX -Jamboree Sampler
DYEAR=2006
DGENRE=Jazz
TTITLE0=Tomasz Stanko-Sleep Safe and Warm
TTITLE1=Simple Acoustic trio-Half note
TTITLE2=Andrzej Jagodziñski Trio-Waltz in D Flat major
TTITLE3=Janusz Strobel-Wiemy Sobie
TTITLE4=Janusz Strobel-Triste
TTITLE5=Janusz Strobel-Samba em preludio
TTITLE6=Leopold Koslowski-Rozhinkes mit Mandeln
TTITLE7=Leopold Koslowski-Az der rebe Tantst
TTITLE8=Belz
TTITLE9=The Kroke Band-Sun
TTITLE10=The Kroke Band-Usual Happines
TTITLE11=The Kroke Band-Dream
TTITLE12=Turnioki-Góralska muzykan na ostra nute
TTITLE13=Tolhaje-Powiesz ze mi...
TTITLE14=Anna Maria Jopek and Pat Metheny-Upojenie
TTITLE15=Anita Lipnicka and John Porter-Bones of love
TTITLE16=Anita Lipnicka and John Porter-Beggar's Song
TTITLE17=Dorota Miskiewicz-Poza Czasem
EXTD=YEAR: 2006
EXTT0=
EXTT1=
EXTT2=
EXTT3=
EXTT4=
EXTT5=
EXTT6=
EXTT7=
EXTT8=
EXTT9=
EXTT10=
EXTT11=
EXTT12=
EXTT13=
EXTT14=
EXTT15=
EXTT16=
EXTT17=
PLAYORDER=
